<?xml version="1.0" standalone="no"?>
<!DOCTYPE svg PUBLIC "-//W3C//DTD SVG 20010904//EN"
 "http://www.w3.org/TR/2001/REC-SVG-20010904/DTD/svg10.dtd">
<svg version="1.0" xmlns="http://www.w3.org/2000/svg"
 width="640.000000pt" height="640.000000pt" viewBox="0 0 640.000000 640.000000"
 preserveAspectRatio="xMidYMid meet">

<g transform="translate(0.000000,640.000000) scale(0.100000,-0.100000)"
fill="#000000" stroke="none">
<path d="M970 3170 l0 -2230 1600 -2 c880 -1 1615 -2 1633 -2 l32 -1 3 313 2
312 28 3 c15 1 140 2 277 2 l250 0 3 278 2 277 309 0 309 0 6 112 c4 62 5 799
4 1638 l-3 1525 -2227 3 -2228 2 0 -2230z m3830 270 l0 -1320 -280 0 -280 0 0
-274 0 -275 -152 -4 c-84 -2 -678 -4 -1320 -4 l-1168 -1 0 1599 0 1599 1600 0
1600 0 0 -1320z"/>
<path d="M2155 4207 c-3 -6 -4 -478 -2 -1047 l2 -1035 1043 -3 1042 -2 -2
1047 -3 1048 -1038 2 c-821 2 -1039 0 -1042 -10z m1463 -1038 l-3 -411 -415
-1 -415 -2 -3 413 -2 412 420 0 420 0 -2 -411z"/>
<path d="M4843 1563 l-43 -4 0 -310 0 -309 309 0 308 0 7 92 c3 50 6 185 6
299 0 175 -2 210 -16 223 -13 14 -51 16 -272 14 -141 -1 -276 -3 -299 -5z"/>
</g>
</svg>
