<?xml version="1.0" standalone="no"?>
<!DOCTYPE svg PUBLIC "-//W3C//DTD SVG 20010904//EN"
 "http://www.w3.org/TR/2001/REC-SVG-20010904/DTD/svg10.dtd">
<svg version="1.0" xmlns="http://www.w3.org/2000/svg"
 width="1823.000000pt" height="1575.000000pt" viewBox="0 0 1823.000000 1575.000000"
 preserveAspectRatio="xMidYMid meet">

<g transform="translate(0.000000,1575.000000) scale(0.100000,-0.100000)"
fill="#000000" stroke="none">
<path d="M9038 15297 c-54 -105 -169 -331 -256 -502 -87 -170 -238 -467 -336
-660 -98 -192 -231 -453 -296 -580 -65 -126 -184 -360 -265 -520 -81 -159
-196 -384 -255 -500 -59 -115 -187 -367 -285 -560 -98 -192 -217 -426 -265
-520 -48 -93 -163 -318 -255 -500 -92 -181 -214 -420 -270 -530 -56 -110 -180
-353 -275 -540 -95 -187 -214 -421 -265 -520 -51 -99 -172 -337 -270 -530 -98
-192 -217 -426 -265 -520 -229 -446 -432 -847 -428 -849 1 -2 201 -103 443
-226 242 -122 499 -253 570 -290 72 -37 301 -154 510 -260 209 -106 457 -232
550 -280 94 -48 325 -166 515 -263 190 -97 505 -257 700 -357 195 -99 455
-231 577 -293 l223 -112 212 109 c245 125 571 291 978 499 157 79 508 258 780
397 272 139 641 327 820 417 179 91 420 214 535 273 116 59 332 169 480 245
149 76 272 140 275 142 2 2 -51 113 -119 246 -68 133 -180 352 -249 487 -68
135 -180 353 -247 485 -67 132 -191 375 -275 540 -84 165 -208 408 -275 540
-67 132 -245 481 -395 775 -150 294 -332 652 -405 795 -226 443 -624 1224
-805 1580 -95 187 -210 412 -255 500 -45 88 -169 331 -275 540 -106 209 -218
430 -250 490 -32 61 -162 317 -290 570 -128 253 -236 463 -239 467 -4 4 -50
-79 -103 -185z"/>
<path d="M4905 9391 c-94 -48 -363 -185 -600 -305 -236 -120 -497 -253 -580
-296 -82 -43 -312 -160 -510 -260 -198 -100 -445 -226 -550 -280 -104 -54
-329 -168 -500 -255 -331 -168 -678 -345 -1050 -535 -126 -65 -378 -193 -560
-285 -181 -93 -331 -169 -332 -169 -1 -1 62 -34 140 -74 78 -39 302 -153 497
-253 195 -99 621 -316 945 -481 325 -165 689 -351 810 -413 121 -62 353 -180
515 -262 266 -136 812 -414 1555 -793 386 -197 715 -364 1600 -815 429 -218
897 -457 1040 -530 143 -73 382 -194 530 -270 561 -286 787 -401 1033 -527
171 -87 257 -127 265 -120 7 5 183 96 392 202 209 106 457 232 550 280 94 48
328 167 520 265 193 98 440 224 550 280 110 56 344 176 520 265 176 89 410
209 520 265 110 56 349 178 530 270 182 92 420 214 530 270 269 137 639 326
1305 665 305 155 641 326 745 380 105 54 352 180 550 280 198 100 446 226 550
280 105 54 325 166 490 250 719 366 819 417 977 498 93 47 167 86 165 88 -1 1
-101 52 -222 114 -121 62 -323 165 -450 230 -126 65 -369 188 -540 275 -170
87 -404 206 -520 265 -115 59 -340 174 -500 255 -159 81 -402 205 -540 275
-137 70 -376 192 -530 270 -154 78 -374 191 -490 250 -204 104 -910 463 -1010
514 -27 13 -51 23 -53 21 -2 -1 265 -536 592 -1188 328 -651 596 -1189 596
-1194 0 -5 -132 -76 -292 -158 -161 -81 -297 -151 -303 -155 -5 -4 -244 -125
-530 -270 -286 -144 -524 -266 -530 -270 -5 -4 -217 -112 -470 -240 -253 -128
-545 -276 -650 -330 -189 -97 -447 -229 -1020 -520 -165 -84 -394 -201 -510
-260 -710 -363 -924 -470 -939 -470 -10 0 -117 51 -239 114 -263 135 -629 321
-1082 551 -181 92 -406 207 -500 255 -93 48 -332 170 -530 270 -198 101 -513
261 -699 357 -186 95 -443 226 -570 290 -127 63 -267 135 -311 158 -44 23
-242 124 -440 225 -421 214 -869 442 -873 445 -2 2 265 539 593 1195 328 655
595 1193 593 1195 -2 2 -80 -36 -173 -84z"/>
<path d="M7825 1651 l1310 -1311 1307 1307 c720 720 1308 1309 1308 1311 0 2
-15 -5 -32 -16 -18 -11 -316 -178 -663 -372 -623 -349 -869 -486 -1530 -857
-187 -105 -352 -197 -366 -203 -25 -11 -43 -3 -245 110 -676 379 -1046 586
-1654 927 -318 179 -720 403 -735 411 -5 2 579 -586 1300 -1307z"/>
</g>
</svg>
